<?xml version="1.0" encoding="UTF-8"?>
<svg width="1200pt" height="1200pt" version="1.1" viewBox="0 0 1200 1200" xmlns="http://www.w3.org/2000/svg">
 <g>
  <path d="m850 400c89.043-0.13281 176.1 26.332 250 76v-276c0-35.105-9.2422-69.598-26.793-100-17.555-30.402-42.805-55.652-73.207-73.207-30.402-17.551-64.895-26.793-100-26.793h-700c-53.043 0-103.91 21.07-141.42 58.578s-58.578 88.379-58.578 141.42v700c0 35.105 9.2422 69.598 26.793 100 17.555 30.402 42.805 55.652 73.207 73.207 30.402 17.551 64.895 26.793 100 26.793h276c-60.641-90.758-86.227-200.46-71.992-308.69 14.238-108.22 67.324-207.58 149.37-279.57 82.051-71.988 187.47-111.7 296.62-111.74z"/>
  <path d="m850 500c-92.824 0-181.85 36.875-247.49 102.51s-102.51 154.66-102.51 247.49 36.875 181.85 102.51 247.49 154.66 102.51 247.49 102.51 181.85-36.875 247.49-102.51 102.51-154.66 102.51-247.49c-0.10547-92.793-37.016-181.75-102.63-247.37-65.617-65.613-154.58-102.52-247.37-102.63zm100 400h-50v50c0 17.863-9.5312 34.371-25 43.301-15.469 8.9336-34.531 8.9336-50 0-15.469-8.9297-25-25.438-25-43.301v-50h-50c-17.863 0-34.371-9.5312-43.301-25-8.9336-15.469-8.9336-34.531 0-50 8.9297-15.469 25.438-25 43.301-25h50v-50c0-17.863 9.5312-34.371 25-43.301 15.469-8.9336 34.531-8.9336 50 0 15.469 8.9297 25 25.438 25 43.301v50h50c17.863 0 34.371 9.5312 43.301 25 8.9336 15.469 8.9336 34.531 0 50-8.9297 15.469-25.438 25-43.301 25z"/>
 </g>
</svg>
