<?xml version="1.0" encoding="UTF-8"?>
<svg width="1200pt" height="1200pt" version="1.1" viewBox="0 0 1200 1200" xmlns="http://www.w3.org/2000/svg">
 <path d="m600 0c-159.13 0-311.74 63.215-424.27 175.73-112.52 112.52-175.73 265.14-175.73 424.27s63.215 311.74 175.73 424.27c112.52 112.52 265.14 175.73 424.27 175.73s311.74-63.215 424.27-175.73c112.52-112.52 175.73-265.14 175.73-424.27-0.13281-159.09-63.391-311.62-175.88-424.12-112.49-112.49-265.03-175.75-424.12-175.88zm200 850h-400c-17.863 0-34.371-9.5312-43.301-25-8.9336-15.469-8.9336-34.531 0-50 8.9297-15.469 25.438-25 43.301-25h400c17.863 0 34.371 9.5312 43.301 25 8.9336 15.469 8.9336 34.531 0 50-8.9297 15.469-25.438 25-43.301 25zm0-200h-400c-17.863 0-34.371-9.5312-43.301-25-8.9336-15.469-8.9336-34.531 0-50 8.9297-15.469 25.438-25 43.301-25h400c17.863 0 34.371 9.5312 43.301 25 8.9336 15.469 8.9336 34.531 0 50-8.9297 15.469-25.438 25-43.301 25zm0-200h-400c-17.863 0-34.371-9.5312-43.301-25-8.9336-15.469-8.9336-34.531 0-50 8.9297-15.469 25.438-25 43.301-25h400c17.863 0 34.371 9.5312 43.301 25 8.9336 15.469 8.9336 34.531 0 50-8.9297 15.469-25.438 25-43.301 25z"/>
</svg>
